<svg width="1920" height="206" viewBox="0 0 1920 206" fill="none" xmlns="http://www.w3.org/2000/svg">
<path d="M-75 3.20517H825C831.167 2.70517 845.8 2.80517 855 7.20517C864.2 11.6052 871.833 17.0385 874.5 19.2052L994.5 102.705C999.833 106.705 1012.2 114.705 1019 114.705C1025.8 114.705 1038.83 114.705 1044.5 114.705H1499.5C1506.67 113.872 1523.8 114.305 1535 122.705C1546.2 131.105 1586.33 179.205 1605 192.205C1609.67 195.539 1621.4 202.205 1631 202.205C1640.6 202.205 2046.5 202.205 2074 202.205" stroke="url(#paint0_linear_108_32)" stroke-width="6"/>
<defs>
<linearGradient id="paint0_linear_108_32" x1="347.5" y1="26.0018" x2="1731.5" y2="28.0018" gradientUnits="userSpaceOnUse">
<stop stop-color="#0044BA"/>
<stop offset="1" stop-color="#0044BA" stop-opacity="0.38"/>
</linearGradient>
</defs>
</svg>
